
<svg xmlns="http://www.w3.org/2000/svg" viewBox="0 0 448 512" width="64" height="64">
  <rect width="100%" height="100%" fill="transparent"/>
  <path fill="white" d="M100.28 448H7.4V148.9h92.88zm-46.44-341.8C24.04 106.2 0 
  82.1 0 52.2 0 22.3 24.04-1.8 53.84-1.8c29.8 
  0 53.84 24.04 53.84 53.84 0 29.9-24.04 
  53.84-53.84 53.84zM447.9 448h-92.4V302.4c0-34.7-.7-79.3-48.3-79.3-48.3 
  0-55.7 37.7-55.7 76.7V448h-92.4V148.9h88.7v40.8h1.3c12.4-23.4 
  42.6-48.3 87.7-48.3 93.8 0 111 61.8 111 
  142.3V448z"/>
</svg>
