<svg width="64" height="64" viewBox="0 0 24 24" xmlns="http://www.w3.org/2000/svg">
  <!-- Circle outline -->
  <circle cx="12" cy="12" r="10" stroke="white" stroke-width="2" fill="none"/>
  <!-- Scaled phone icon -->
  <g transform="translate(12 12) scale(0.6) translate(-12 -12)" fill="white">
    <path d="M6.62 10.79a15.05 15.05 0 006.59 6.59l2.2-2.2a1 1 0 011.11-.21 12.47 12.47 0 004.24 1.07 1 1 0 01.89 1V20a1 1 0 01-1 1A17.92 17.92 0 013 4a1 1 0 011-1h3.65a1 1 0 011 .89 12.47 12.47 0 001.07 4.24 1 1 0 01-.21 1.11l-2.2 2.2z"/>
  </g>
</svg>
